<mxfile host="app.diagrams.net" modified="2023-03-04T13:49:56.823Z" agent="5.0 (Windows)" etag="C65HOy3DMdDhILZJnHwg" version="21.0.2" type="github">
  <diagram name="Page-1" id="tvrXYWguxjk-g5KQNEeY">
    <mxGraphModel dx="1528" dy="789" grid="1" gridSize="10" guides="1" tooltips="1" connect="1" arrows="1" fold="1" page="1" pageScale="1" pageWidth="1169" pageHeight="827" math="0" shadow="0">
      <root>
        <mxCell id="0" />
        <mxCell id="1" parent="0" />
        <mxCell id="25iMhyRyphCtYw7AUOcz-5" style="edgeStyle=orthogonalEdgeStyle;rounded=0;orthogonalLoop=1;jettySize=auto;html=1;endArrow=none;endFill=0;" edge="1" parent="1" source="I1212vl05lIgOYmDwrLI-4">
          <mxGeometry relative="1" as="geometry">
            <mxPoint x="50" y="320" as="targetPoint" />
          </mxGeometry>
        </mxCell>
        <mxCell id="I1212vl05lIgOYmDwrLI-4" value="&lt;font style=&quot;font-size: 14px;&quot;&gt;Consulter les statistiques des ventes &lt;/font&gt;" style="html=1;overflow=block;blockSpacing=1;whiteSpace=wrap;ellipse;fontSize=13;spacing=3.8;strokeColor=#9673a6;strokeOpacity=100;rounded=1;absoluteArcSize=1;arcSize=9;strokeWidth=1;lucidId=.BitsejxpJ_f;fillColor=#e1d5e7;" parent="1" vertex="1">
          <mxGeometry x="320" y="120" width="240" height="40" as="geometry" />
        </mxCell>
        <mxCell id="I1212vl05lIgOYmDwrLI-6" value="&lt;font style=&quot;font-size: 14px;&quot;&gt;Gestion d&#39;évenements&lt;/font&gt;" style="html=1;overflow=block;blockSpacing=1;whiteSpace=wrap;ellipse;fontSize=13;spacing=3.8;strokeColor=#9673a6;strokeOpacity=100;rounded=1;absoluteArcSize=1;arcSize=9;strokeWidth=1;lucidId=.BitsejxpJ_f;fillColor=#e1d5e7;" parent="1" vertex="1">
          <mxGeometry x="352.5" y="240" width="195" height="40" as="geometry" />
        </mxCell>
        <mxCell id="6kgnM06NobJMtCzkACtN-29" style="edgeStyle=orthogonalEdgeStyle;rounded=0;orthogonalLoop=1;jettySize=auto;html=1;exitX=1;exitY=0.5;exitDx=0;exitDy=0;fontSize=14;endArrow=none;endFill=0;" parent="1" source="I1212vl05lIgOYmDwrLI-8" edge="1">
          <mxGeometry relative="1" as="geometry">
            <Array as="points">
              <mxPoint x="450" y="295" />
            </Array>
            <mxPoint x="450" y="290" as="targetPoint" />
          </mxGeometry>
        </mxCell>
        <mxCell id="I1212vl05lIgOYmDwrLI-8" value="&lt;font style=&quot;font-size: 12px;&quot;&gt;Creer évenement&lt;/font&gt;" style="html=1;overflow=block;blockSpacing=1;whiteSpace=wrap;ellipse;fontSize=13;spacing=3.8;strokeColor=#000000;strokeOpacity=100;rounded=1;absoluteArcSize=1;arcSize=9;strokeWidth=1;lucidId=.BitsejxpJ_f;" parent="1" vertex="1">
          <mxGeometry x="232.5" y="280" width="135" height="30" as="geometry" />
        </mxCell>
        <mxCell id="6kgnM06NobJMtCzkACtN-31" style="edgeStyle=orthogonalEdgeStyle;rounded=0;orthogonalLoop=1;jettySize=auto;html=1;fontSize=14;endArrow=block;endFill=0;entryX=0.5;entryY=1;entryDx=0;entryDy=0;" parent="1" source="I1212vl05lIgOYmDwrLI-10" target="I1212vl05lIgOYmDwrLI-6" edge="1">
          <mxGeometry relative="1" as="geometry">
            <Array as="points" />
            <mxPoint x="450" y="290" as="targetPoint" />
          </mxGeometry>
        </mxCell>
        <mxCell id="I1212vl05lIgOYmDwrLI-10" value="&lt;font style=&quot;font-size: 12px;&quot;&gt;modifier evenement&lt;/font&gt;" style="html=1;overflow=block;blockSpacing=1;whiteSpace=wrap;ellipse;fontSize=13;spacing=3.8;strokeColor=#000000;strokeOpacity=100;rounded=1;absoluteArcSize=1;arcSize=9;strokeWidth=1;lucidId=.BitsejxpJ_f;" parent="1" vertex="1">
          <mxGeometry x="325" y="315" width="125" height="30" as="geometry" />
        </mxCell>
        <mxCell id="6kgnM06NobJMtCzkACtN-30" style="rounded=0;orthogonalLoop=1;jettySize=auto;html=1;fontSize=14;endArrow=none;endFill=0;" parent="1" source="I1212vl05lIgOYmDwrLI-12" edge="1">
          <mxGeometry relative="1" as="geometry">
            <mxPoint x="450" y="295" as="targetPoint" />
          </mxGeometry>
        </mxCell>
        <mxCell id="I1212vl05lIgOYmDwrLI-12" value="&lt;font style=&quot;font-size: 12px;&quot;&gt;Supprimer évenement &lt;/font&gt;" style="html=1;overflow=block;blockSpacing=1;whiteSpace=wrap;ellipse;fontSize=13;spacing=3.8;strokeColor=#000000;strokeOpacity=100;rounded=1;absoluteArcSize=1;arcSize=9;strokeWidth=1;lucidId=.BitsejxpJ_f;" parent="1" vertex="1">
          <mxGeometry x="552" y="275" width="155" height="40" as="geometry" />
        </mxCell>
        <mxCell id="I1212vl05lIgOYmDwrLI-14" value="&lt;font style=&quot;font-size: 14px;&quot;&gt;Consulter des messages  &lt;/font&gt;" style="ellipse;whiteSpace=wrap;html=1;strokeWidth=1;strokeColor=#9673a6;fillColor=#e1d5e7;" parent="1" vertex="1">
          <mxGeometry x="342.5" y="370" width="206" height="30" as="geometry" />
        </mxCell>
        <mxCell id="6kgnM06NobJMtCzkACtN-33" style="edgeStyle=orthogonalEdgeStyle;rounded=0;orthogonalLoop=1;jettySize=auto;html=1;entryX=0.485;entryY=1;entryDx=0;entryDy=0;entryPerimeter=0;fontSize=14;endArrow=block;endFill=0;" parent="1" source="I1212vl05lIgOYmDwrLI-16" target="I1212vl05lIgOYmDwrLI-14" edge="1">
          <mxGeometry relative="1" as="geometry" />
        </mxCell>
        <mxCell id="I1212vl05lIgOYmDwrLI-16" value="&lt;div style=&quot;font-size: 14px;&quot;&gt;&lt;font style=&quot;font-size: 14px;&quot;&gt;Filtrer les messages &lt;br&gt;&lt;/font&gt;&lt;/div&gt;" style="ellipse;whiteSpace=wrap;html=1;strokeWidth=1;strokeColor=#000000;" parent="1" vertex="1">
          <mxGeometry x="340.5" y="420" width="204" height="30" as="geometry" />
        </mxCell>
        <mxCell id="6kgnM06NobJMtCzkACtN-17" style="edgeStyle=orthogonalEdgeStyle;rounded=0;orthogonalLoop=1;jettySize=auto;html=1;entryX=1;entryY=0.5;entryDx=0;entryDy=0;fontSize=14;endArrow=block;endFill=0;" parent="1" source="I1212vl05lIgOYmDwrLI-17" target="6kgnM06NobJMtCzkACtN-10" edge="1">
          <mxGeometry relative="1" as="geometry">
            <Array as="points">
              <mxPoint x="639.5" y="560" />
              <mxPoint x="542.5" y="560" />
            </Array>
          </mxGeometry>
        </mxCell>
        <mxCell id="I1212vl05lIgOYmDwrLI-17" value="&lt;div&gt;&lt;font style=&quot;font-size: 14px;&quot;&gt;Ajouter superviseur au evenement&lt;/font&gt;&lt;/div&gt;" style="ellipse;whiteSpace=wrap;html=1;strokeWidth=1;strokeColor=#000000;" parent="1" vertex="1">
          <mxGeometry x="542.5" y="580" width="193" height="37.5" as="geometry" />
        </mxCell>
        <mxCell id="I1212vl05lIgOYmDwrLI-18" value="S&#39;authentifier" style="html=1;overflow=block;blockSpacing=1;whiteSpace=wrap;ellipse;fontSize=13;spacing=3.8;strokeColor=#000000;strokeOpacity=100;rounded=1;absoluteArcSize=1;arcSize=9;strokeWidth=1;lucidId=XvitAHHM73nt;" parent="1" vertex="1">
          <mxGeometry x="960" y="370" width="120" height="30" as="geometry" />
        </mxCell>
        <mxCell id="I1212vl05lIgOYmDwrLI-19" value="Deconnecter" style="html=1;overflow=block;blockSpacing=1;whiteSpace=wrap;ellipse;fontSize=13;spacing=3.8;strokeColor=#000000;strokeOpacity=100;rounded=1;absoluteArcSize=1;arcSize=9;strokeWidth=1;lucidId=XvitmW9DInrr;" parent="1" vertex="1">
          <mxGeometry x="1030" y="480" width="120" height="35" as="geometry" />
        </mxCell>
        <mxCell id="I1212vl05lIgOYmDwrLI-31" value="&amp;lt;&amp;lt;extend&amp;gt;&amp;gt;" style="html=1;verticalAlign=bottom;labelBackgroundColor=none;endArrow=open;endFill=0;dashed=1;rounded=0;fontSize=14;entryX=1;entryY=0.5;entryDx=0;entryDy=0;exitX=0.417;exitY=0;exitDx=0;exitDy=0;exitPerimeter=0;strokeWidth=1;strokeColor=#000000;" parent="1" source="I1212vl05lIgOYmDwrLI-19" target="I1212vl05lIgOYmDwrLI-18" edge="1">
          <mxGeometry x="-0.7008" y="-18" width="160" relative="1" as="geometry">
            <mxPoint x="1370" y="530" as="sourcePoint" />
            <mxPoint x="1530" y="530" as="targetPoint" />
            <mxPoint as="offset" />
          </mxGeometry>
        </mxCell>
        <mxCell id="I1212vl05lIgOYmDwrLI-32" value="&lt;div style=&quot;font-size: 14px;&quot;&gt;&lt;font style=&quot;font-size: 14px;&quot;&gt;Selon feedback&lt;br&gt;&lt;/font&gt;&lt;/div&gt;" style="ellipse;whiteSpace=wrap;html=1;strokeWidth=1;strokeColor=#000000;" parent="1" vertex="1">
          <mxGeometry x="232.5" y="470" width="180" height="30" as="geometry" />
        </mxCell>
        <mxCell id="I1212vl05lIgOYmDwrLI-33" value="&lt;div style=&quot;font-size: 14px;&quot;&gt;&lt;font style=&quot;font-size: 14px;&quot;&gt;Selon Reclamation&lt;br&gt;&lt;/font&gt;&lt;/div&gt;" style="ellipse;whiteSpace=wrap;html=1;strokeWidth=1;strokeColor=#000000;" parent="1" vertex="1">
          <mxGeometry x="452.5" y="472.5" width="180" height="30" as="geometry" />
        </mxCell>
        <mxCell id="I1212vl05lIgOYmDwrLI-41" value="&amp;lt;&amp;lt;extend&amp;gt;&amp;gt;" style="html=1;verticalAlign=bottom;labelBackgroundColor=none;endArrow=open;endFill=0;dashed=1;rounded=0;fontSize=14;entryX=0.259;entryY=0.875;entryDx=0;entryDy=0;exitX=0.5;exitY=0;exitDx=0;exitDy=0;strokeWidth=1;strokeColor=#000000;entryPerimeter=0;" parent="1" source="I1212vl05lIgOYmDwrLI-32" target="I1212vl05lIgOYmDwrLI-16" edge="1">
          <mxGeometry x="-0.9149" y="9" width="160" relative="1" as="geometry">
            <mxPoint x="264.82199999999966" y="162.43000000000006" as="sourcePoint" />
            <mxPoint x="413.0679685239279" y="119.19218754110398" as="targetPoint" />
            <Array as="points" />
            <mxPoint as="offset" />
          </mxGeometry>
        </mxCell>
        <mxCell id="I1212vl05lIgOYmDwrLI-42" value="&amp;lt;&amp;lt;extend&amp;gt;&amp;gt;" style="html=1;verticalAlign=bottom;labelBackgroundColor=none;endArrow=open;endFill=0;dashed=1;rounded=0;fontSize=14;exitX=0.5;exitY=0;exitDx=0;exitDy=0;strokeWidth=1;strokeColor=#000000;entryX=0.559;entryY=1.01;entryDx=0;entryDy=0;entryPerimeter=0;" parent="1" source="I1212vl05lIgOYmDwrLI-33" target="I1212vl05lIgOYmDwrLI-16" edge="1">
          <mxGeometry x="-1" y="-11" width="160" relative="1" as="geometry">
            <mxPoint x="320.5" y="573.75" as="sourcePoint" />
            <mxPoint x="455.5" y="513.75" as="targetPoint" />
            <Array as="points" />
            <mxPoint x="7" y="6" as="offset" />
          </mxGeometry>
        </mxCell>
        <mxCell id="6kgnM06NobJMtCzkACtN-41" style="edgeStyle=orthogonalEdgeStyle;rounded=0;orthogonalLoop=1;jettySize=auto;html=1;entryX=0.834;entryY=0.892;entryDx=0;entryDy=0;entryPerimeter=0;fontSize=14;endArrow=block;endFill=0;" parent="1" source="6kgnM06NobJMtCzkACtN-1" target="I1212vl05lIgOYmDwrLI-4" edge="1">
          <mxGeometry relative="1" as="geometry" />
        </mxCell>
        <mxCell id="6kgnM06NobJMtCzkACtN-1" value="&lt;font style=&quot;font-size: 12px;&quot;&gt;Selon l&#39;age&lt;/font&gt;" style="ellipse;whiteSpace=wrap;html=1;" parent="1" vertex="1">
          <mxGeometry x="520" y="188" width="80" height="20" as="geometry" />
        </mxCell>
        <mxCell id="6kgnM06NobJMtCzkACtN-39" style="edgeStyle=orthogonalEdgeStyle;rounded=0;orthogonalLoop=1;jettySize=auto;html=1;exitX=0.5;exitY=0;exitDx=0;exitDy=0;fontSize=14;endArrow=block;endFill=0;" parent="1" source="6kgnM06NobJMtCzkACtN-2" target="I1212vl05lIgOYmDwrLI-4" edge="1">
          <mxGeometry relative="1" as="geometry" />
        </mxCell>
        <mxCell id="6kgnM06NobJMtCzkACtN-2" value="&lt;div&gt;&lt;font style=&quot;font-size: 12px;&quot;&gt;Selon &lt;font style=&quot;font-size: 12px;&quot;&gt;mois&lt;/font&gt;&lt;/font&gt;&lt;/div&gt;" style="ellipse;whiteSpace=wrap;html=1;" parent="1" vertex="1">
          <mxGeometry x="403" y="191" width="100" height="22" as="geometry" />
        </mxCell>
        <mxCell id="6kgnM06NobJMtCzkACtN-38" style="edgeStyle=orthogonalEdgeStyle;rounded=0;orthogonalLoop=1;jettySize=auto;html=1;entryX=0;entryY=1;entryDx=0;entryDy=0;fontSize=14;endArrow=block;endFill=0;" parent="1" source="6kgnM06NobJMtCzkACtN-3" target="I1212vl05lIgOYmDwrLI-4" edge="1">
          <mxGeometry relative="1" as="geometry" />
        </mxCell>
        <mxCell id="6kgnM06NobJMtCzkACtN-3" value="&lt;font style=&quot;font-size: 12px;&quot;&gt;Selon region&lt;/font&gt;" style="ellipse;whiteSpace=wrap;html=1;" parent="1" vertex="1">
          <mxGeometry x="280" y="188" width="100" height="28" as="geometry" />
        </mxCell>
        <mxCell id="6kgnM06NobJMtCzkACtN-10" value="&lt;font style=&quot;font-size: 14px;&quot;&gt;Gerer compte superviseur&lt;/font&gt;" style="ellipse;whiteSpace=wrap;html=1;strokeWidth=1;strokeColor=#9673a6;fillColor=#e1d5e7;" parent="1" vertex="1">
          <mxGeometry x="338.5" y="530" width="204" height="40" as="geometry" />
        </mxCell>
        <mxCell id="6kgnM06NobJMtCzkACtN-16" style="edgeStyle=orthogonalEdgeStyle;rounded=0;orthogonalLoop=1;jettySize=auto;html=1;fontSize=14;endArrow=block;endFill=0;" parent="1" source="6kgnM06NobJMtCzkACtN-11" target="6kgnM06NobJMtCzkACtN-10" edge="1">
          <mxGeometry relative="1" as="geometry" />
        </mxCell>
        <mxCell id="6kgnM06NobJMtCzkACtN-11" value="Ajouter superviseur" style="ellipse;whiteSpace=wrap;html=1;fontSize=14;" parent="1" vertex="1">
          <mxGeometry x="170.5" y="570" width="130" height="35" as="geometry" />
        </mxCell>
        <mxCell id="6kgnM06NobJMtCzkACtN-18" style="edgeStyle=orthogonalEdgeStyle;rounded=0;orthogonalLoop=1;jettySize=auto;html=1;entryX=0.359;entryY=0.961;entryDx=0;entryDy=0;entryPerimeter=0;fontSize=14;endArrow=none;endFill=0;" parent="1" source="6kgnM06NobJMtCzkACtN-12" target="6kgnM06NobJMtCzkACtN-14" edge="1">
          <mxGeometry relative="1" as="geometry" />
        </mxCell>
        <mxCell id="6kgnM06NobJMtCzkACtN-12" value="modifier superviseur" style="ellipse;whiteSpace=wrap;html=1;fontSize=14;" parent="1" vertex="1">
          <mxGeometry x="295.5" y="660" width="120" height="40" as="geometry" />
        </mxCell>
        <mxCell id="6kgnM06NobJMtCzkACtN-19" style="edgeStyle=orthogonalEdgeStyle;rounded=0;orthogonalLoop=1;jettySize=auto;html=1;entryX=0.627;entryY=0.975;entryDx=0;entryDy=0;entryPerimeter=0;fontSize=14;endArrow=none;endFill=0;" parent="1" source="6kgnM06NobJMtCzkACtN-13" target="6kgnM06NobJMtCzkACtN-14" edge="1">
          <mxGeometry relative="1" as="geometry" />
        </mxCell>
        <mxCell id="6kgnM06NobJMtCzkACtN-13" value="supprimer superviseur" style="ellipse;whiteSpace=wrap;html=1;fontSize=14;" parent="1" vertex="1">
          <mxGeometry x="465.5" y="660" width="120" height="40" as="geometry" />
        </mxCell>
        <mxCell id="6kgnM06NobJMtCzkACtN-15" style="edgeStyle=orthogonalEdgeStyle;rounded=0;orthogonalLoop=1;jettySize=auto;html=1;exitX=0.5;exitY=0;exitDx=0;exitDy=0;fontSize=14;endArrow=block;endFill=0;" parent="1" source="6kgnM06NobJMtCzkACtN-14" edge="1">
          <mxGeometry relative="1" as="geometry">
            <mxPoint x="430.5" y="570" as="targetPoint" />
          </mxGeometry>
        </mxCell>
        <mxCell id="6kgnM06NobJMtCzkACtN-14" value="Consulter liste&amp;nbsp; des superviseur" style="ellipse;whiteSpace=wrap;html=1;fontSize=14;" parent="1" vertex="1">
          <mxGeometry x="330.5" y="590" width="200" height="40" as="geometry" />
        </mxCell>
        <mxCell id="6kgnM06NobJMtCzkACtN-34" value="&amp;lt;&amp;lt;include&amp;gt;&amp;gt;" style="html=1;verticalAlign=bottom;labelBackgroundColor=none;endArrow=open;endFill=0;dashed=1;rounded=0;fontSize=14;exitX=1;exitY=0.5;exitDx=0;exitDy=0;entryX=0.286;entryY=-0.122;entryDx=0;entryDy=0;entryPerimeter=0;" parent="1" source="I1212vl05lIgOYmDwrLI-4" target="I1212vl05lIgOYmDwrLI-18" edge="1">
          <mxGeometry width="160" relative="1" as="geometry">
            <mxPoint x="410" y="320" as="sourcePoint" />
            <mxPoint x="570" y="320" as="targetPoint" />
            <Array as="points">
              <mxPoint x="970" y="140" />
            </Array>
          </mxGeometry>
        </mxCell>
        <mxCell id="6kgnM06NobJMtCzkACtN-35" value="&amp;lt;&amp;lt;include&amp;gt;&amp;gt;" style="html=1;verticalAlign=bottom;labelBackgroundColor=none;endArrow=open;endFill=0;dashed=1;rounded=0;fontSize=14;exitX=1;exitY=0.5;exitDx=0;exitDy=0;entryX=0;entryY=0;entryDx=0;entryDy=0;" parent="1" source="I1212vl05lIgOYmDwrLI-6" target="I1212vl05lIgOYmDwrLI-18" edge="1">
          <mxGeometry width="160" relative="1" as="geometry">
            <mxPoint x="410" y="320" as="sourcePoint" />
            <mxPoint x="570" y="320" as="targetPoint" />
            <Array as="points">
              <mxPoint x="920" y="260" />
            </Array>
          </mxGeometry>
        </mxCell>
        <mxCell id="6kgnM06NobJMtCzkACtN-36" value="&amp;lt;&amp;lt;include&amp;gt;&amp;gt;" style="html=1;verticalAlign=bottom;labelBackgroundColor=none;endArrow=open;endFill=0;dashed=1;rounded=0;fontSize=14;entryX=0;entryY=0.5;entryDx=0;entryDy=0;exitX=1;exitY=0.5;exitDx=0;exitDy=0;" parent="1" source="I1212vl05lIgOYmDwrLI-14" target="I1212vl05lIgOYmDwrLI-18" edge="1">
          <mxGeometry width="160" relative="1" as="geometry">
            <mxPoint x="410" y="400" as="sourcePoint" />
            <mxPoint x="570" y="400" as="targetPoint" />
          </mxGeometry>
        </mxCell>
        <mxCell id="6kgnM06NobJMtCzkACtN-37" value="&amp;lt;&amp;lt;include&amp;gt;&amp;gt;" style="html=1;verticalAlign=bottom;labelBackgroundColor=none;endArrow=open;endFill=0;dashed=1;rounded=0;fontSize=14;entryX=0.267;entryY=0.992;entryDx=0;entryDy=0;exitX=0.961;exitY=0.325;exitDx=0;exitDy=0;exitPerimeter=0;entryPerimeter=0;" parent="1" source="6kgnM06NobJMtCzkACtN-10" target="I1212vl05lIgOYmDwrLI-18" edge="1">
          <mxGeometry width="160" relative="1" as="geometry">
            <mxPoint x="410" y="520" as="sourcePoint" />
            <mxPoint x="570" y="520" as="targetPoint" />
            <Array as="points">
              <mxPoint x="940" y="543" />
            </Array>
          </mxGeometry>
        </mxCell>
        <mxCell id="NXl6PDYvhRcdq7Tgv2Dt-2" style="edgeStyle=orthogonalEdgeStyle;rounded=0;orthogonalLoop=1;jettySize=auto;html=1;exitX=0.5;exitY=0;exitDx=0;exitDy=0;endArrow=block;endFill=0;" parent="1" source="NXl6PDYvhRcdq7Tgv2Dt-1" edge="1">
          <mxGeometry relative="1" as="geometry">
            <mxPoint x="450" y="280" as="targetPoint" />
          </mxGeometry>
        </mxCell>
        <mxCell id="NXl6PDYvhRcdq7Tgv2Dt-1" value="modeliser un carte des places" style="html=1;overflow=block;blockSpacing=1;whiteSpace=wrap;ellipse;fontSize=13;spacing=3.8;strokeColor=#000000;strokeOpacity=100;rounded=1;absoluteArcSize=1;arcSize=9;strokeWidth=1;lucidId=.BitsejxpJ_f;" parent="1" vertex="1">
          <mxGeometry x="460" y="315" width="130" height="35" as="geometry" />
        </mxCell>
        <mxCell id="25iMhyRyphCtYw7AUOcz-2" value="&lt;div align=&quot;left&quot;&gt;Organisateur&lt;/div&gt;&lt;div&gt;&lt;br&gt;&lt;br&gt;&lt;/div&gt;" style="shape=umlActor;verticalLabelPosition=bottom;verticalAlign=top;html=1;outlineConnect=0;" vertex="1" parent="1">
          <mxGeometry x="30" y="355" width="50" height="95" as="geometry" />
        </mxCell>
        <mxCell id="25iMhyRyphCtYw7AUOcz-7" value="" style="endArrow=none;html=1;rounded=0;entryX=0;entryY=0.5;entryDx=0;entryDy=0;" edge="1" parent="1" target="I1212vl05lIgOYmDwrLI-6">
          <mxGeometry width="50" height="50" relative="1" as="geometry">
            <mxPoint x="80" y="350" as="sourcePoint" />
            <mxPoint x="560" y="360" as="targetPoint" />
            <Array as="points">
              <mxPoint x="150" y="260" />
            </Array>
          </mxGeometry>
        </mxCell>
        <mxCell id="25iMhyRyphCtYw7AUOcz-8" value="" style="endArrow=none;html=1;rounded=0;entryX=0;entryY=0.5;entryDx=0;entryDy=0;" edge="1" parent="1" source="25iMhyRyphCtYw7AUOcz-2" target="I1212vl05lIgOYmDwrLI-14">
          <mxGeometry width="50" height="50" relative="1" as="geometry">
            <mxPoint x="510" y="410" as="sourcePoint" />
            <mxPoint x="560" y="360" as="targetPoint" />
            <Array as="points">
              <mxPoint x="150" y="385" />
            </Array>
          </mxGeometry>
        </mxCell>
        <mxCell id="25iMhyRyphCtYw7AUOcz-9" value="" style="endArrow=none;html=1;rounded=0;" edge="1" parent="1" target="6kgnM06NobJMtCzkACtN-10">
          <mxGeometry width="50" height="50" relative="1" as="geometry">
            <mxPoint x="90" y="430" as="sourcePoint" />
            <mxPoint x="560" y="390" as="targetPoint" />
            <Array as="points">
              <mxPoint x="200" y="530" />
            </Array>
          </mxGeometry>
        </mxCell>
      </root>
    </mxGraphModel>
  </diagram>
</mxfile>
